<svg xmlns="http://www.w3.org/2000/svg" xmlns:xlink="http://www.w3.org/1999/xlink" width="150" zoomAndPan="magnify" viewBox="0 0 112.5 30.000001" height="40" preserveAspectRatio="xMidYMid meet" version="1.0"><defs><g><g id="id1"/></g></defs><g fill="rgb(100%, 0%, 100%)" fill-opacity="1"><g transform="translate(7.629492, 25.496114)"><g><path d="M 16.859375 0 L 2.390625 0 C 2.023438 0 1.757812 -0.0820312 1.59375 -0.25 C 1.425781 -0.414062 1.34375 -0.679688 1.34375 -1.046875 L 1.34375 -4.953125 C 1.34375 -5.328125 1.398438 -5.65625 1.515625 -5.9375 C 1.628906 -6.21875 1.816406 -6.492188 2.078125 -6.765625 L 9.15625 -15.375 L 2.921875 -15.375 C 2.546875 -15.375 2.273438 -15.457031 2.109375 -15.625 C 1.941406 -15.789062 1.859375 -16.054688 1.859375 -16.421875 L 1.859375 -19.953125 C 1.859375 -20.328125 1.941406 -20.59375 2.109375 -20.75 C 2.273438 -20.914062 2.546875 -21 2.921875 -21 L 16.34375 -21 C 16.707031 -21 16.972656 -20.914062 17.140625 -20.75 C 17.304688 -20.59375 17.390625 -20.328125 17.390625 -19.953125 L 17.390625 -15.609375 C 17.390625 -15.222656 17.328125 -14.882812 17.203125 -14.59375 C 17.085938 -14.3125 16.90625 -14.035156 16.65625 -13.765625 L 9.890625 -5.578125 L 16.859375 -5.578125 C 17.234375 -5.578125 17.5 -5.492188 17.65625 -5.328125 C 17.820312 -5.160156 17.90625 -4.890625 17.90625 -4.515625 L 17.90625 -1.046875 C 17.90625 -0.679688 17.820312 -0.414062 17.65625 -0.25 C 17.5 -0.0820312 17.234375 0 16.859375 0 Z M 16.859375 0 "/></g></g></g><g fill="rgb(100%, 0%, 100%)" fill-opacity="1"><g transform="translate(32.895027, 25.496114)"><g><path d="M 16.59375 0 L 3.0625 0 C 2.695312 0 2.429688 -0.0820312 2.265625 -0.25 C 2.097656 -0.414062 2.015625 -0.679688 2.015625 -1.046875 L 2.015625 -19.953125 C 2.015625 -20.328125 2.097656 -20.59375 2.265625 -20.75 C 2.429688 -20.914062 2.695312 -21 3.0625 -21 L 16.59375 -21 C 16.96875 -21 17.238281 -20.914062 17.40625 -20.75 C 17.570312 -20.59375 17.65625 -20.328125 17.65625 -19.953125 L 17.65625 -16.546875 C 17.65625 -16.171875 17.570312 -15.898438 17.40625 -15.734375 C 17.238281 -15.566406 16.96875 -15.484375 16.59375 -15.484375 L 8.546875 -15.484375 L 8.546875 -13.25 L 14.234375 -13.25 C 14.609375 -13.25 14.875 -13.164062 15.03125 -13 C 15.195312 -12.832031 15.28125 -12.5625 15.28125 -12.1875 L 15.28125 -9.078125 C 15.28125 -8.703125 15.195312 -8.429688 15.03125 -8.265625 C 14.875 -8.097656 14.609375 -8.015625 14.234375 -8.015625 L 8.546875 -8.015625 L 8.546875 -5.515625 L 16.59375 -5.515625 C 16.96875 -5.515625 17.238281 -5.429688 17.40625 -5.265625 C 17.570312 -5.097656 17.65625 -4.832031 17.65625 -4.46875 L 17.65625 -1.046875 C 17.65625 -0.679688 17.570312 -0.414062 17.40625 -0.25 C 17.238281 -0.0820312 16.96875 0 16.59375 0 Z M 16.59375 0 "/></g></g></g><g fill="rgb(100%, 0%, 100%)" fill-opacity="1"><g transform="translate(57.985533, 25.496114)"><g><path d="M 16.59375 0 L 3.0625 0 C 2.695312 0 2.429688 -0.0820312 2.265625 -0.25 C 2.097656 -0.414062 2.015625 -0.679688 2.015625 -1.046875 L 2.015625 -19.953125 C 2.015625 -20.328125 2.097656 -20.59375 2.265625 -20.75 C 2.429688 -20.914062 2.695312 -21 3.0625 -21 L 16.59375 -21 C 16.96875 -21 17.238281 -20.914062 17.40625 -20.75 C 17.570312 -20.59375 17.65625 -20.328125 17.65625 -19.953125 L 17.65625 -16.546875 C 17.65625 -16.171875 17.570312 -15.898438 17.40625 -15.734375 C 17.238281 -15.566406 16.96875 -15.484375 16.59375 -15.484375 L 8.546875 -15.484375 L 8.546875 -13.25 L 14.234375 -13.25 C 14.609375 -13.25 14.875 -13.164062 15.03125 -13 C 15.195312 -12.832031 15.28125 -12.5625 15.28125 -12.1875 L 15.28125 -9.078125 C 15.28125 -8.703125 15.195312 -8.429688 15.03125 -8.265625 C 14.875 -8.097656 14.609375 -8.015625 14.234375 -8.015625 L 8.546875 -8.015625 L 8.546875 -5.515625 L 16.59375 -5.515625 C 16.96875 -5.515625 17.238281 -5.429688 17.40625 -5.265625 C 17.570312 -5.097656 17.65625 -4.832031 17.65625 -4.46875 L 17.65625 -1.046875 C 17.65625 -0.679688 17.570312 -0.414062 17.40625 -0.25 C 17.238281 -0.0820312 16.96875 0 16.59375 0 Z M 16.59375 0 "/></g></g></g><g fill="rgb(100%, 0%, 100%)" fill-opacity="1"><g transform="translate(83.07604, 25.496114)"><g><path d="M 17.90625 0 L 3.0625 0 C 2.695312 0 2.429688 -0.0820312 2.265625 -0.25 C 2.097656 -0.414062 2.015625 -0.679688 2.015625 -1.046875 L 2.015625 -19.953125 C 2.015625 -20.328125 2.097656 -20.59375 2.265625 -20.75 C 2.429688 -20.914062 2.695312 -21 3.0625 -21 L 7.578125 -21 C 7.953125 -21 8.222656 -20.914062 8.390625 -20.75 C 8.554688 -20.59375 8.640625 -20.328125 8.640625 -19.953125 L 8.640625 -5.515625 L 12.625 -5.515625 L 12.625 -10.234375 C 12.625 -10.609375 12.707031 -10.878906 12.875 -11.046875 C 13.039062 -11.210938 13.3125 -11.296875 13.6875 -11.296875 L 17.90625 -11.296875 C 18.28125 -11.296875 18.550781 -11.210938 18.71875 -11.046875 C 18.882812 -10.878906 18.96875 -10.609375 18.96875 -10.234375 L 18.96875 -1.046875 C 18.96875 -0.679688 18.882812 -0.414062 18.71875 -0.25 C 18.550781 -0.0820312 18.28125 0 17.90625 0 Z M 17.90625 0 "/></g></g></g><g fill="rgb(0%, 100%, 100%)" fill-opacity="1"><g transform="translate(9.150147, 24.078081)"><g><path d="M 16.859375 0 L 2.390625 0 C 2.023438 0 1.757812 -0.0820312 1.59375 -0.25 C 1.425781 -0.414062 1.34375 -0.679688 1.34375 -1.046875 L 1.34375 -4.953125 C 1.34375 -5.328125 1.398438 -5.65625 1.515625 -5.9375 C 1.628906 -6.21875 1.816406 -6.492188 2.078125 -6.765625 L 9.15625 -15.375 L 2.921875 -15.375 C 2.546875 -15.375 2.273438 -15.457031 2.109375 -15.625 C 1.941406 -15.789062 1.859375 -16.054688 1.859375 -16.421875 L 1.859375 -19.953125 C 1.859375 -20.328125 1.941406 -20.59375 2.109375 -20.75 C 2.273438 -20.914062 2.546875 -21 2.921875 -21 L 16.34375 -21 C 16.707031 -21 16.972656 -20.914062 17.140625 -20.75 C 17.304688 -20.59375 17.390625 -20.328125 17.390625 -19.953125 L 17.390625 -15.609375 C 17.390625 -15.222656 17.328125 -14.882812 17.203125 -14.59375 C 17.085938 -14.3125 16.90625 -14.035156 16.65625 -13.765625 L 9.890625 -5.578125 L 16.859375 -5.578125 C 17.234375 -5.578125 17.5 -5.492188 17.65625 -5.328125 C 17.820312 -5.160156 17.90625 -4.890625 17.90625 -4.515625 L 17.90625 -1.046875 C 17.90625 -0.679688 17.820312 -0.414062 17.65625 -0.25 C 17.5 -0.0820312 17.234375 0 16.859375 0 Z M 16.859375 0 "/></g></g></g><g fill="rgb(0%, 100%, 100%)" fill-opacity="1"><g transform="translate(34.415681, 24.078081)"><g><path d="M 16.59375 0 L 3.0625 0 C 2.695312 0 2.429688 -0.0820312 2.265625 -0.25 C 2.097656 -0.414062 2.015625 -0.679688 2.015625 -1.046875 L 2.015625 -19.953125 C 2.015625 -20.328125 2.097656 -20.59375 2.265625 -20.75 C 2.429688 -20.914062 2.695312 -21 3.0625 -21 L 16.59375 -21 C 16.96875 -21 17.238281 -20.914062 17.40625 -20.75 C 17.570312 -20.59375 17.65625 -20.328125 17.65625 -19.953125 L 17.65625 -16.546875 C 17.65625 -16.171875 17.570312 -15.898438 17.40625 -15.734375 C 17.238281 -15.566406 16.96875 -15.484375 16.59375 -15.484375 L 8.546875 -15.484375 L 8.546875 -13.25 L 14.234375 -13.25 C 14.609375 -13.25 14.875 -13.164062 15.03125 -13 C 15.195312 -12.832031 15.28125 -12.5625 15.28125 -12.1875 L 15.28125 -9.078125 C 15.28125 -8.703125 15.195312 -8.429688 15.03125 -8.265625 C 14.875 -8.097656 14.609375 -8.015625 14.234375 -8.015625 L 8.546875 -8.015625 L 8.546875 -5.515625 L 16.59375 -5.515625 C 16.96875 -5.515625 17.238281 -5.429688 17.40625 -5.265625 C 17.570312 -5.097656 17.65625 -4.832031 17.65625 -4.46875 L 17.65625 -1.046875 C 17.65625 -0.679688 17.570312 -0.414062 17.40625 -0.25 C 17.238281 -0.0820312 16.96875 0 16.59375 0 Z M 16.59375 0 "/></g></g></g><g fill="rgb(0%, 100%, 100%)" fill-opacity="1"><g transform="translate(59.506188, 24.078081)"><g><path d="M 16.59375 0 L 3.0625 0 C 2.695312 0 2.429688 -0.0820312 2.265625 -0.25 C 2.097656 -0.414062 2.015625 -0.679688 2.015625 -1.046875 L 2.015625 -19.953125 C 2.015625 -20.328125 2.097656 -20.59375 2.265625 -20.75 C 2.429688 -20.914062 2.695312 -21 3.0625 -21 L 16.59375 -21 C 16.96875 -21 17.238281 -20.914062 17.40625 -20.75 C 17.570312 -20.59375 17.65625 -20.328125 17.65625 -19.953125 L 17.65625 -16.546875 C 17.65625 -16.171875 17.570312 -15.898438 17.40625 -15.734375 C 17.238281 -15.566406 16.96875 -15.484375 16.59375 -15.484375 L 8.546875 -15.484375 L 8.546875 -13.25 L 14.234375 -13.25 C 14.609375 -13.25 14.875 -13.164062 15.03125 -13 C 15.195312 -12.832031 15.28125 -12.5625 15.28125 -12.1875 L 15.28125 -9.078125 C 15.28125 -8.703125 15.195312 -8.429688 15.03125 -8.265625 C 14.875 -8.097656 14.609375 -8.015625 14.234375 -8.015625 L 8.546875 -8.015625 L 8.546875 -5.515625 L 16.59375 -5.515625 C 16.96875 -5.515625 17.238281 -5.429688 17.40625 -5.265625 C 17.570312 -5.097656 17.65625 -4.832031 17.65625 -4.46875 L 17.65625 -1.046875 C 17.65625 -0.679688 17.570312 -0.414062 17.40625 -0.25 C 17.238281 -0.0820312 16.96875 0 16.59375 0 Z M 16.59375 0 "/></g></g></g><g fill="rgb(0%, 100%, 100%)" fill-opacity="1"><g transform="translate(84.596694, 24.078081)"><g><path d="M 17.90625 0 L 3.0625 0 C 2.695312 0 2.429688 -0.0820312 2.265625 -0.25 C 2.097656 -0.414062 2.015625 -0.679688 2.015625 -1.046875 L 2.015625 -19.953125 C 2.015625 -20.328125 2.097656 -20.59375 2.265625 -20.75 C 2.429688 -20.914062 2.695312 -21 3.0625 -21 L 7.578125 -21 C 7.953125 -21 8.222656 -20.914062 8.390625 -20.75 C 8.554688 -20.59375 8.640625 -20.328125 8.640625 -19.953125 L 8.640625 -5.515625 L 12.625 -5.515625 L 12.625 -10.234375 C 12.625 -10.609375 12.707031 -10.878906 12.875 -11.046875 C 13.039062 -11.210938 13.3125 -11.296875 13.6875 -11.296875 L 17.90625 -11.296875 C 18.28125 -11.296875 18.550781 -11.210938 18.71875 -11.046875 C 18.882812 -10.878906 18.96875 -10.609375 18.96875 -10.234375 L 18.96875 -1.046875 C 18.96875 -0.679688 18.882812 -0.414062 18.71875 -0.25 C 18.550781 -0.0820312 18.28125 0 17.90625 0 Z M 17.90625 0 "/></g></g></g><g fill="rgb(99.609375%, 27.059937%, 18.818665%)" fill-opacity="1"><g transform="translate(8.38982, 24.787098)"><g><path d="M 16.859375 0 L 2.390625 0 C 2.023438 0 1.757812 -0.0820312 1.59375 -0.25 C 1.425781 -0.414062 1.34375 -0.679688 1.34375 -1.046875 L 1.34375 -4.953125 C 1.34375 -5.328125 1.398438 -5.65625 1.515625 -5.9375 C 1.628906 -6.21875 1.816406 -6.492188 2.078125 -6.765625 L 9.15625 -15.375 L 2.921875 -15.375 C 2.546875 -15.375 2.273438 -15.457031 2.109375 -15.625 C 1.941406 -15.789062 1.859375 -16.054688 1.859375 -16.421875 L 1.859375 -19.953125 C 1.859375 -20.328125 1.941406 -20.59375 2.109375 -20.75 C 2.273438 -20.914062 2.546875 -21 2.921875 -21 L 16.34375 -21 C 16.707031 -21 16.972656 -20.914062 17.140625 -20.75 C 17.304688 -20.59375 17.390625 -20.328125 17.390625 -19.953125 L 17.390625 -15.609375 C 17.390625 -15.222656 17.328125 -14.882812 17.203125 -14.59375 C 17.085938 -14.3125 16.90625 -14.035156 16.65625 -13.765625 L 9.890625 -5.578125 L 16.859375 -5.578125 C 17.234375 -5.578125 17.5 -5.492188 17.65625 -5.328125 C 17.820312 -5.160156 17.90625 -4.890625 17.90625 -4.515625 L 17.90625 -1.046875 C 17.90625 -0.679688 17.820312 -0.414062 17.65625 -0.25 C 17.5 -0.0820312 17.234375 0 16.859375 0 Z M 16.859375 0 "/></g></g></g><g fill="rgb(99.609375%, 27.059937%, 18.818665%)" fill-opacity="1"><g transform="translate(33.655354, 24.787098)"><g><path d="M 16.59375 0 L 3.0625 0 C 2.695312 0 2.429688 -0.0820312 2.265625 -0.25 C 2.097656 -0.414062 2.015625 -0.679688 2.015625 -1.046875 L 2.015625 -19.953125 C 2.015625 -20.328125 2.097656 -20.59375 2.265625 -20.75 C 2.429688 -20.914062 2.695312 -21 3.0625 -21 L 16.59375 -21 C 16.96875 -21 17.238281 -20.914062 17.40625 -20.75 C 17.570312 -20.59375 17.65625 -20.328125 17.65625 -19.953125 L 17.65625 -16.546875 C 17.65625 -16.171875 17.570312 -15.898438 17.40625 -15.734375 C 17.238281 -15.566406 16.96875 -15.484375 16.59375 -15.484375 L 8.546875 -15.484375 L 8.546875 -13.25 L 14.234375 -13.25 C 14.609375 -13.25 14.875 -13.164062 15.03125 -13 C 15.195312 -12.832031 15.28125 -12.5625 15.28125 -12.1875 L 15.28125 -9.078125 C 15.28125 -8.703125 15.195312 -8.429688 15.03125 -8.265625 C 14.875 -8.097656 14.609375 -8.015625 14.234375 -8.015625 L 8.546875 -8.015625 L 8.546875 -5.515625 L 16.59375 -5.515625 C 16.96875 -5.515625 17.238281 -5.429688 17.40625 -5.265625 C 17.570312 -5.097656 17.65625 -4.832031 17.65625 -4.46875 L 17.65625 -1.046875 C 17.65625 -0.679688 17.570312 -0.414062 17.40625 -0.25 C 17.238281 -0.0820312 16.96875 0 16.59375 0 Z M 16.59375 0 "/></g></g></g><g fill="rgb(99.609375%, 27.059937%, 18.818665%)" fill-opacity="1"><g transform="translate(58.745861, 24.787098)"><g><path d="M 16.59375 0 L 3.0625 0 C 2.695312 0 2.429688 -0.0820312 2.265625 -0.25 C 2.097656 -0.414062 2.015625 -0.679688 2.015625 -1.046875 L 2.015625 -19.953125 C 2.015625 -20.328125 2.097656 -20.59375 2.265625 -20.75 C 2.429688 -20.914062 2.695312 -21 3.0625 -21 L 16.59375 -21 C 16.96875 -21 17.238281 -20.914062 17.40625 -20.75 C 17.570312 -20.59375 17.65625 -20.328125 17.65625 -19.953125 L 17.65625 -16.546875 C 17.65625 -16.171875 17.570312 -15.898438 17.40625 -15.734375 C 17.238281 -15.566406 16.96875 -15.484375 16.59375 -15.484375 L 8.546875 -15.484375 L 8.546875 -13.25 L 14.234375 -13.25 C 14.609375 -13.25 14.875 -13.164062 15.03125 -13 C 15.195312 -12.832031 15.28125 -12.5625 15.28125 -12.1875 L 15.28125 -9.078125 C 15.28125 -8.703125 15.195312 -8.429688 15.03125 -8.265625 C 14.875 -8.097656 14.609375 -8.015625 14.234375 -8.015625 L 8.546875 -8.015625 L 8.546875 -5.515625 L 16.59375 -5.515625 C 16.96875 -5.515625 17.238281 -5.429688 17.40625 -5.265625 C 17.570312 -5.097656 17.65625 -4.832031 17.65625 -4.46875 L 17.65625 -1.046875 C 17.65625 -0.679688 17.570312 -0.414062 17.40625 -0.25 C 17.238281 -0.0820312 16.96875 0 16.59375 0 Z M 16.59375 0 "/></g></g></g><g fill="rgb(99.609375%, 27.059937%, 18.818665%)" fill-opacity="1"><g transform="translate(83.836367, 24.787098)"><g><path d="M 17.90625 0 L 3.0625 0 C 2.695312 0 2.429688 -0.0820312 2.265625 -0.25 C 2.097656 -0.414062 2.015625 -0.679688 2.015625 -1.046875 L 2.015625 -19.953125 C 2.015625 -20.328125 2.097656 -20.59375 2.265625 -20.75 C 2.429688 -20.914062 2.695312 -21 3.0625 -21 L 7.578125 -21 C 7.953125 -21 8.222656 -20.914062 8.390625 -20.75 C 8.554688 -20.59375 8.640625 -20.328125 8.640625 -19.953125 L 8.640625 -5.515625 L 12.625 -5.515625 L 12.625 -10.234375 C 12.625 -10.609375 12.707031 -10.878906 12.875 -11.046875 C 13.039062 -11.210938 13.3125 -11.296875 13.6875 -11.296875 L 17.90625 -11.296875 C 18.28125 -11.296875 18.550781 -11.210938 18.71875 -11.046875 C 18.882812 -10.878906 18.96875 -10.609375 18.96875 -10.234375 L 18.96875 -1.046875 C 18.96875 -0.679688 18.882812 -0.414062 18.71875 -0.25 C 18.550781 -0.0820312 18.28125 0 17.90625 0 Z M 17.90625 0 "/></g></g></g></svg>